<svg width="235" height="192" xmlns="http://www.w3.org/2000/svg" class="flying-svg">
 <defs>
  <linearGradient y2="1.050495" x2="0.984523" y1="-1.101969" x1="-0.701787" id="paint0_linear_header_logo">
   <stop stop-color="#861BE3"/>
   <stop stop-color="#00FFC1" offset="1"/>
  </linearGradient>
 </defs>
 <g>
  <title>background</title>
  <rect fill="none" id="canvas_background" height="402" width="582" y="-1" x="-1"/>
 </g>
 <g>
  <title>Layer 1</title>
  <path id="svg_1" fill="url(#paint0_linear_header_logo)" d="m97.58337,78.60573l0,96.0956c0,9.738 7.9703,17.632 17.8033,17.632l101.477,0c9.833,0 17.803,-7.894 17.803,-17.632l0,-102.2668c0,-9.7383 -7.97,-17.6322 -17.803,-17.6322l-96.136,0c-13.38144,0.60113 -22.76286,6.36894 -23.1443,23.8034z" clip-rule="evenodd" fill-rule="evenodd"/>
  <path id="svg_2" fill="#1D2633" d="m180.7,167.49c-0.921,-0.227 -1.715,-0.422 -1.715,-1.092c0,-0.897 1.059,-0.994 1.514,-0.994c0.631,0 0.99,0.091 1.46,0.313c0.228,-0.175 1.269,-0.975 1.269,-0.975c-0.686,-0.456 -1.717,-0.812 -2.718,-0.812c-2.387,0 -3.238,1.324 -3.238,2.563c0,1.785 1.488,2.157 2.8,2.485c0.923,0.23 1.719,0.429 1.719,1.109c0,0.349 -0.2,0.935 -1.536,0.935c-0.888,0 -1.86,-0.325 -2.55,-0.85l-0.58,1.384c0.703,0.572 1.923,0.94 3.119,0.94c1.98,0 3.26,-1.002 3.26,-2.552c0,-1.765 -1.49,-2.131 -2.804,-2.454z" clip-rule="evenodd" fill-rule="evenodd"/>
  <path id="svg_3" fill="#1D2633" d="m188.95,170.976l-2.136,0l0,-2.119l2.136,0c0.975,0 1.47,0.352 1.47,1.059c0,0.71 -0.481,1.06 -1.47,1.06zm-2.136,-3.498l1.825,0l-1.825,0zm0,-2.024l1.825,0c1.151,0 1.392,0.553 1.392,1.012c0,0.666 -0.481,1.012 -1.392,1.012l-1.825,0l0,-2.024zm3.945,2.631l-0.082,-0.028l0.076,-0.043c0.653,-0.37 1.013,-1.011 1.013,-1.805c0,-1.336 -1.086,-2.134 -2.905,-2.134l-3.759,0l0,8.28l3.981,0c1.981,0 3.072,-0.796 3.072,-2.242c0,-0.983 -0.509,-1.722 -1.396,-2.028z" clip-rule="evenodd" fill-rule="evenodd"/>
  <path id="svg_4" fill="#1D2633" d="m197.952,165.45l1.794,-1.378l-6.002,0l0,8.279l6.002,0l0,-1.378l-4.289,0l0,-2.12l3.658,0l0,-1.378l-3.658,0l0,-2.025l2.495,0z" clip-rule="evenodd" fill-rule="evenodd"/>
  <path id="svg_5" fill="#1D2633" d="m203.055,165.454l1.519,0c1.097,0 1.701,0.564 1.701,1.588c0,1.025 -0.604,1.589 -1.701,1.589l-1.519,0l0,-3.177zm5.058,6.9l-1.744,-2.689c1.029,-0.468 1.622,-1.391 1.622,-2.627c0,-1.828 -1.295,-2.963 -3.381,-2.963l-3.267,0l0,8.279l1.712,0l0,-2.345l1.555,0c0.049,0 0.097,-0.001 0.145,-0.002l1.522,2.347l1.836,0z" clip-rule="evenodd" fill-rule="evenodd"/>
  <path id="svg_6" fill="#1D2633" d="m173.306,168.213c0,-0.42 -0.037,-0.832 -0.106,-1.232l-1.419,1.091c0.001,0.047 0.001,0.094 0.001,0.141c0,2.918 -2.275,5.291 -5.072,5.291c-2.797,0 -5.072,-2.373 -5.072,-5.291c0,-2.917 2.275,-5.29 5.072,-5.29c1.06,0 2.045,0.341 2.859,0.923l1.284,-0.986c-1.133,-0.954 -2.574,-1.526 -4.143,-1.526c-3.643,0 -6.596,3.08 -6.596,6.879c0,3.8 2.953,6.88 6.596,6.88c3.643,0 6.596,-3.08 6.596,-6.88z" clip-rule="evenodd" fill-rule="evenodd"/>
  <path id="svg_7" fill="#1D2633" d="m171.926,164.008c0.311,0.42 0.578,0.878 0.79,1.367l-6.009,4.62l-2.512,-1.642l0,-1.975l2.512,1.642l5.219,-4.012z" clip-rule="evenodd" fill-rule="evenodd"/>
  <path id="svg_8" fill="#1D2633" d="m195.01,96.1741c-0.505,-0.5266 -0.788,-1.2405 -0.788,-1.9852l0,-9.1236c0,-1.4131 -1.098,-2.5587 -2.453,-2.5587l-7.97,0c-1.355,0 -2.453,1.1456 -2.453,2.5587l0,8.313c0,1.4128 1.098,2.5587 2.453,2.5587l8.743,0c0.714,0 1.399,0.2955 1.903,0.8221l0.003,0.0024c0.504,0.5262 0.788,1.2402 0.788,1.9848l0,52.5787c0,1.413 1.098,2.559 2.453,2.559l7.97,0c1.355,0 2.453,-1.146 2.453,-2.559l0,-51.7698c0,-1.4135 -1.098,-2.5591 -2.453,-2.5591l-8.745,0c-0.714,0 -1.399,-0.2955 -1.904,-0.822z" clip-rule="evenodd" fill-rule="evenodd"/>
  <path id="svg_9" fill="#1D2633" d="m135.13,125.744l0.01,-0.01c0.505,-0.524 1.187,-0.818 1.899,-0.818l21.632,0c1.348,0 2.441,-1.14 2.441,-2.547l0,-9.148c0,-0.738 0.283,-1.446 0.785,-1.967l0.009,-0.01c0.505,-0.523 1.187,-0.817 1.899,-0.817l8.756,0c1.348,0 2.442,-1.141 2.442,-2.548l0,-8.3356c0,-1.4065 -1.094,-2.5473 -2.442,-2.5473l-8.757,0c-0.714,0 -1.398,-0.2958 -1.903,-0.822c-0.505,-0.5266 -0.789,-1.2405 -0.789,-1.9852l0,-9.135c0,-1.4068 -1.093,-2.5473 -2.441,-2.5473l-34.719,0c-1.371,0 -2.482,1.1592 -2.482,2.5897l0,8.2509c0,1.4303 1.111,2.5898 2.482,2.5898l35.48,0c0.714,0 1.4,0.2961 1.905,0.8233c0.506,0.5271 0.79,1.242 0.79,1.9875l0,9.9362c0,0.742 -0.284,1.454 -0.788,1.978l-0.007,0.006c-0.504,0.524 -1.187,0.818 -1.898,0.818l-21.632,0c-1.349,0 -2.442,1.14 -2.442,2.547l0,9.141c0,0.74 -0.282,1.45 -0.784,1.974l-0.009,0.009c-0.502,0.524 -1.182,0.818 -1.892,0.818l-8.763,0c-1.349,0 -2.442,1.14 -2.442,2.547l0,8.336c0,1.407 1.093,2.547 2.442,2.547l8.772,0c0.709,0 1.39,0.294 1.892,0.818l0,0c0.502,0.523 0.784,1.233 0.784,1.973l0,9.14c0,1.407 1.093,2.547 2.442,2.548l34.718,0c1.371,0 2.483,-1.159 2.483,-2.59l0,-8.251c0,-1.43 -1.112,-2.589 -2.483,-2.589l-35.482,-0.001c-0.711,0 -1.394,-0.294 -1.898,-0.817l-0.01,-0.01c-0.502,-0.52 -0.784,-1.228 -0.784,-1.966l0,-9.949c0,-0.738 0.282,-1.446 0.784,-1.967z" clip-rule="evenodd" fill-rule="evenodd"/>
  <path id="svg_10" fill="white" d="m202.991,121.67l-0.032,-0.034c-0.048,-0.049 -0.075,-0.116 -0.075,-0.186l0,-0.972c0,-0.146 -0.113,-0.265 -0.253,-0.265l-2.28,0c-0.067,0 -0.132,-0.027 -0.18,-0.077l-0.016,-0.017c-0.048,-0.05 -0.075,-0.117 -0.075,-0.188l0,-2.385c0,-0.146 -0.113,-0.265 -0.253,-0.265l-0.842,0c-0.14,0 -0.254,0.119 -0.254,0.265l0,6.949c0,0.145 0.114,0.264 0.254,0.264l0.842,0c0.14,0 0.253,-0.119 0.253,-0.264l0,-4.331l0.032,0.033c0.048,0.05 0.074,0.117 0.074,0.187l0,0.972c0,0.146 0.114,0.265 0.254,0.265l2.28,0c0.068,0 0.132,0.028 0.18,0.077l0.016,0.017c0.048,0.05 0.075,0.117 0.075,0.187l0,2.593c0,0.145 0.113,0.264 0.253,0.264l0.842,0c0.14,0 0.254,-0.119 0.254,-0.264l0,-6.949c0,-0.146 -0.114,-0.265 -0.254,-0.265l-0.842,0c-0.14,0 -0.253,0.119 -0.253,0.265l0,4.124z" clip-rule="evenodd" fill-rule="evenodd"/>
  <path id="svg_11" fill="white" d="m202.914,114.373l-0.012,0.013c-0.049,0.051 -0.115,0.079 -0.184,0.079l-1.182,0l-1.183,0c-0.069,0 -0.135,-0.028 -0.184,-0.079l-0.013,-0.013c-0.048,-0.051 -0.076,-0.12 -0.076,-0.192l0,-4.094c0,-0.072 0.028,-0.141 0.076,-0.192l0.013,-0.014c0.049,-0.051 0.116,-0.079 0.184,-0.079l2.364,0c0.069,0 0.135,0.028 0.184,0.079l0.013,0.014c0.049,0.051 0.077,0.12 0.077,0.192l0,0.961c0,0.15 0.116,0.271 0.26,0.271l0.828,0c0.144,0 0.26,-0.121 0.26,-0.271l0,-0.864c0,-0.15 -0.116,-0.271 -0.26,-0.271l-0.922,0c-0.069,0 -0.135,-0.029 -0.184,-0.08l-0.012,-0.013c-0.049,-0.051 -0.077,-0.12 -0.077,-0.192l0,-0.962c0,-0.15 -0.116,-0.271 -0.26,-0.271l-2.177,0c-0.144,0 -0.261,0.121 -0.261,0.271l0,0.962c0,0.072 -0.027,0.141 -0.076,0.192l-0.012,0.013c-0.049,0.051 -0.115,0.08 -0.184,0.08l-0.923,0c-0.143,0 -0.26,0.121 -0.26,0.271l0,3.899c0,0.15 0.117,0.271 0.26,0.271l0.922,0c0.07,0 0.135,0.029 0.184,0.08l0.013,0.013c0.049,0.051 0.076,0.12 0.076,0.192l0,0.962c0,0.15 0.117,0.271 0.261,0.271l1.483,0l0.694,0c0.144,0 0.26,-0.121 0.26,-0.271l0,-0.962c0,-0.072 0.028,-0.141 0.077,-0.192l0.011,-0.012c0.049,-0.051 0.115,-0.08 0.184,-0.08l0.923,0c0.144,0 0.261,-0.121 0.261,-0.271l0,-0.864c0,-0.15 -0.117,-0.272 -0.261,-0.272l-0.828,0c-0.144,0 -0.26,0.122 -0.26,0.272l0,0.96c0,0.073 -0.028,0.142 -0.077,0.193z" clip-rule="evenodd" fill-rule="evenodd"/>
  <path id="svg_12" fill="white" d="m202.901,127.651l0.013,0.014c0.049,0.051 0.077,0.12 0.077,0.192l0,4.094c0,0.072 -0.028,0.141 -0.077,0.192l-0.012,0.013c-0.049,0.051 -0.115,0.079 -0.184,0.08l-2.365,0c-0.069,0 -0.135,-0.029 -0.184,-0.08l-0.012,-0.013c-0.049,-0.051 -0.077,-0.12 -0.077,-0.192l0,-4.094c0,-0.072 0.028,-0.141 0.077,-0.192l0.013,-0.014c0.049,-0.051 0.115,-0.079 0.184,-0.079l2.363,0c0.07,0 0.136,0.028 0.184,0.079zm-0.017,-0.253l0,-0.962c0,-0.15 -0.116,-0.271 -0.26,-0.271l-2.177,0c-0.144,0 -0.26,0.121 -0.26,0.271l0,0.962c0,0.072 -0.028,0.141 -0.076,0.192l-0.013,0.013c-0.049,0.051 -0.115,0.08 -0.184,0.08l-0.922,0c-0.144,0 -0.261,0.121 -0.261,0.271l0,3.899c0,0.15 0.117,0.272 0.261,0.272l0.922,0c0.069,0 0.135,0.028 0.184,0.079l0.013,0.014c0.048,0.05 0.076,0.119 0.076,0.191l0,0.962c0,0.15 0.116,0.271 0.26,0.271l2.177,0c0.144,0 0.26,-0.121 0.26,-0.271l0,-0.962c0,-0.072 0.028,-0.141 0.077,-0.191l0.012,-0.013c0.048,-0.051 0.115,-0.079 0.184,-0.079l0.922,0c0.144,0 0.26,-0.122 0.26,-0.272l0,-3.9c0,-0.15 -0.116,-0.271 -0.26,-0.271l-0.922,0c-0.069,0 -0.135,-0.029 -0.184,-0.08l-0.012,-0.013c-0.049,-0.051 -0.077,-0.12 -0.077,-0.192z" clip-rule="evenodd" fill-rule="evenodd"/>
  <path id="svg_13" fill="white" d="m202.901,136.538l0.013,0.014c0.049,0.051 0.077,0.119 0.077,0.192l0,4.093c0,0.072 -0.028,0.141 -0.077,0.192l-0.012,0.014c-0.049,0.05 -0.115,0.079 -0.184,0.079l-2.365,0c-0.069,0 -0.135,-0.029 -0.184,-0.079l-0.012,-0.014c-0.049,-0.051 -0.077,-0.12 -0.077,-0.192l0,-4.093c0,-0.073 0.028,-0.141 0.077,-0.192l0.013,-0.014c0.049,-0.051 0.115,-0.08 0.184,-0.08l2.363,0c0.07,0 0.136,0.029 0.184,0.08zm-0.017,-0.253l0,-0.962c0,-0.15 -0.116,-0.271 -0.26,-0.271l-2.177,0c-0.144,0 -0.26,0.121 -0.26,0.271l0,0.962c0,0.072 -0.028,0.141 -0.076,0.192l-0.013,0.013c-0.049,0.051 -0.115,0.079 -0.184,0.079l-0.922,0c-0.144,0 -0.261,0.122 -0.261,0.272l0,3.899c0,0.15 0.117,0.271 0.261,0.271l0.922,0c0.069,0 0.135,0.029 0.184,0.079l0.013,0.014c0.048,0.051 0.076,0.12 0.076,0.192l0,0.961c0,0.15 0.116,0.272 0.26,0.272l2.177,0c0.144,0 0.26,-0.122 0.26,-0.272l0,-0.961c0,-0.072 0.028,-0.141 0.077,-0.192l0.012,-0.012c0.048,-0.051 0.115,-0.08 0.184,-0.08l0.922,0c0.144,0 0.26,-0.121 0.26,-0.271l0,-3.9c0,-0.15 -0.116,-0.272 -0.26,-0.272l-0.922,0c-0.069,0 -0.135,-0.028 -0.184,-0.079l-0.012,-0.013c-0.049,-0.051 -0.077,-0.12 -0.077,-0.192z" clip-rule="evenodd" fill-rule="evenodd"/>
  <path id="svg_14" fill="white" d="m200.186,99.7858l0,0.9622c0,0.072 -0.027,0.141 -0.076,0.192l-0.012,0.013c-0.049,0.051 -0.115,0.08 -0.184,0.08l-0.923,0c-0.143,0 -0.26,0.121 -0.26,0.271l0,0.864c0,0.15 0.117,0.271 0.26,0.271l0.923,0c0.069,0 0.135,0.029 0.184,0.08l0.012,0.013c0.049,0.051 0.076,0.12 0.076,0.192l0,0.962c0,0.15 0.117,0.271 0.261,0.271l2.271,0c0.069,0 0.135,0.029 0.183,0.08l0.013,0.013c0.049,0.051 0.077,0.12 0.077,0.192l0,1.058c0,0.072 -0.028,0.141 -0.077,0.192l-0.013,0.013c-0.048,0.051 -0.114,0.08 -0.183,0.08l-3.727,0c-0.143,0 -0.26,0.121 -0.26,0.271l0,0.865c0,0.149 0.117,0.271 0.26,0.271l3.633,0c0.144,0 0.26,-0.122 0.26,-0.271l0,-0.962c0,-0.072 0.028,-0.141 0.077,-0.192l0.011,-0.013c0.049,-0.05 0.115,-0.079 0.184,-0.079l0.923,0c0.144,0 0.261,-0.121 0.261,-0.271l0,-0.865c0,-0.149 -0.117,-0.271 -0.261,-0.271l-0.922,0c-0.069,0 -0.135,-0.028 -0.184,-0.079l-0.012,-0.014c-0.049,-0.051 -0.077,-0.12 -0.077,-0.192l0,-0.961c0,-0.15 -0.116,-0.272 -0.26,-0.272l-2.271,0c-0.069,0 -0.135,-0.028 -0.184,-0.079l-0.013,-0.014c-0.048,-0.051 -0.076,-0.119 -0.076,-0.192l0,-1.059c0,-0.072 0.028,-0.141 0.076,-0.191l0.013,-0.014c0.049,-0.051 0.116,-0.08 0.184,-0.08l3.726,0c0.144,0 0.261,-0.121 0.261,-0.271l0,-0.8642c0,-0.1498 -0.117,-0.2712 -0.261,-0.2712l-3.632,0c-0.144,0 -0.261,0.1214 -0.261,0.2712z" clip-rule="evenodd" fill-rule="evenodd"/>
  <path id="svg_15" fill="white" d="m200.169,149.926l-0.013,-0.013c-0.048,-0.051 -0.076,-0.12 -0.076,-0.192l0,-5.515c0,-0.149 -0.116,-0.271 -0.26,-0.271l-0.829,0c-0.143,0 -0.26,0.122 -0.26,0.271l0,5.417c0,0.15 0.117,0.272 0.26,0.272l0.923,0c0.069,0 0.135,0.028 0.184,0.079l0.012,0.014c0.049,0.05 0.076,0.119 0.076,0.191l0,0.962c0,0.15 0.117,0.272 0.26,0.272l3.633,0c0.144,0 0.26,-0.122 0.26,-0.272l0,-0.864c0,-0.15 -0.116,-0.271 -0.26,-0.271l-3.726,0c-0.069,0 -0.135,-0.029 -0.184,-0.08z" clip-rule="evenodd" fill-rule="evenodd"/>
 </g>
</svg>